<?xml version="1.0" encoding="utf-8"?>
<!-- Generator: Adobe Illustrator 17.1.0, SVG Export Plug-In . SVG Version: 6.00 Build 0)  -->
<!DOCTYPE svg PUBLIC "-//W3C//DTD SVG 1.1//EN" "http://www.w3.org/Graphics/SVG/1.1/DTD/svg11.dtd">
<svg version="1.1" id="Layer_1" xmlns="http://www.w3.org/2000/svg" xmlns:xlink="http://www.w3.org/1999/xlink" x="0px" y="0px"
	 viewBox="0 0 16 16" enable-background="new 0 0 16 16" xml:space="preserve">
<path fill="#FFFFFF" d="M14.1,8.3c-0.2,0.6-0.5,1.7-1.7,2.9c-2,2-4.8,2.4-5.8,2.4S2.2,13.4,0,10.3c0,0,3,2.6,5.9-0.2
	C4.5,10.3,4.4,9,5.4,8.9c-1.4,0-1.6-0.5-1.8-1c-0.2-0.4,0.5-0.4,1-0.5c-1-0.3-1.8-1-1.7-1.6c0.1-0.2,0.9,0,0.8-0.2
	c-0.1-0.2-1.5-0.8-1.3-2c1.4,0.7,3.6,1,5.3,2.9C8.2,5,9,3.1,10,2.7s1.8-0.3,2,0.1c0.2,0.4-1.3,0.7-1.3,0.7c1.8-0.2,3,1.4,3.4,3
	c0.8,0.5,1.8,0,1.8,0s-0.2,0.8-1.6,1C14.2,7.5,15,7.7,16,7.6C15.5,8.2,14.6,8.3,14.1,8.3z"/>
</svg>
